{
  "accessors": [
    {
      "bufferView": 2,
      "componentType": 5126,
      "count": 162,
      "max": [
        0.96172249317169189,
        1.1105014085769653,
        1
      ],
      "min": [
        -0.96172249317169189,
        -1.1105014085769653,
        -0.97479593753814697
      ],
      "type": "VEC3"
    },
    {
      "bufferView": 2,
      "byteOffset": 1944,
      "componentType": 5126,
      "count": 162,
      "max": [
        1,
        0.86602550745010376,
        1
      ],
      "min": [
        -1,
        -0.86602556705474854,
        -0.30365017056465149
      ],
      "type": "VEC3"
    },
    {
      "bufferView": 3,
      "componentType": 5126,
      "count": 162,
      "max": [
        0.99951857328414917,
        1,
        0.29961240291595459,
        1
      ],
      "min": [
        -0.97598743438720703,
        -0.99999362230300903,
        -0.29557615518569946,
        1
      ],
      "type": "VEC4"
    },
    {
      "bufferView": 1,
      "componentType": 5126,
      "count": 162,
      "max": [
        0.92419236898422241,
        0.99986040592193604
      ],
      "min": [
        0.0001395961589878425,
        0.0001395961589878425
      ],
      "type": "VEC2"
    },
    {
      "bufferView": 0,
      "componentType": 5125,
      "count": 264,
      "max": [
        161
      ],
      "min": [
        0
      ],
      "type": "SCALAR"
    }
  ],
  "asset": {
    "extras": {
      "author": "RacKrab (https://sketchfab.com/RacKrab)",
      "license": "CC-BY-4.0 (http://creativecommons.org/licenses/by/4.0/)",
      "source": "https://sketchfab.com/models/0e27c47cb1ad430fb53f63f8839ccd81",
      "title": "Low Poly Wood Barrel"
    },
    "generator": "Sketchfab-3.36.2",
    "version": "2.0"
  },
  "bufferViews": [
    {
      "buffer": 0,
      "byteLength": 1056,
      "byteOffset": 0,
      "name": "floatBufferViews",
      "target": 34963
    },
    {
      "buffer": 0,
      "byteLength": 1296,
      "byteOffset": 1056,
      "byteStride": 8,
      "name": "floatBufferViews",
      "target": 34962
    },
    {
      "buffer": 0,
      "byteLength": 3888,
      "byteOffset": 2352,
      "byteStride": 12,
      "name": "floatBufferViews",
      "target": 34962
    },
    {
      "buffer": 0,
      "byteLength": 2592,
      "byteOffset": 6240,
      "byteStride": 16,
      "name": "floatBufferViews",
      "target": 34962
    }
  ],
  "buffers": [
    {
      "byteLength": 8832,
      "uri": "scene.bin"
    }
  ],
  "images": [
    {
      "uri": "textures/Material.001_baseColor.png"
    }
  ],
  "materials": [
    {
      "doubleSided": true,
      "emissiveFactor": [
        0,
        0,
        0
      ],
      "name": "Material.001",
      "pbrMetallicRoughness": {
        "baseColorFactor": [
          1,
          1,
          1,
          1
        ],
        "baseColorTexture": {
          "index": 0,
          "texCoord": 0
        },
        "metallicFactor": 0,
        "roughnessFactor": 0.82394172570000002
      }
    }
  ],
  "meshes": [
    {
      "name": "Cylinder_Material.001_0",
      "primitives": [
        {
          "attributes": {
            "NORMAL": 1,
            "POSITION": 0,
            "TANGENT": 2,
            "TEXCOORD_0": 3
          },
          "indices": 4,
          "material": 0,
          "mode": 4
        }
      ]
    }
  ],
  "nodes": [
    {
      "children": [
        1
      ],
      "name": "RootNode (gltf orientation matrix)",
      "rotation": [
        -0.70710678118654746,
        -0,
        -0,
        0.70710678118654757
      ]
    },
    {
      "children": [
        2
      ],
      "matrix": [
        1,
        0,
        0,
        0,
        0,
        1,
        0,
        0,
        0,
        0,
        1,
        0,
        0,
        0,
        -1.0880000189672501e-07,
        1
      ],
      "name": "RootNode (model correction matrix)"
    },
    {
      "children": [
        3
      ],
      "matrix": [
        1,
        0,
        0,
        0,
        0,
        0,
        1,
        0,
        0,
        -1,
        0,
        0,
        0,
        0,
        0,
        1
      ],
      "name": "readybarrel.fbx"
    },
    {
      "children": [
        4
      ],
      "name": "RootNode"
    },
    {
      "children": [
        5
      ],
      "matrix": [
        76.3790283203125,
        0,
        0,
        0,
        0,
        -1.2443723185233245e-05,
        -76.379028320311491,
        0,
        0,
        96.672592163084659,
        -1.5749964393779398e-05,
        0,
        0,
        117.19161224365234,
        0,
        1
      ],
      "name": "Cylinder"
    },
    {
      "mesh": 0,
      "name": "Cylinder_Material.001_0"
    }
  ],
  "samplers": [
    {
      "magFilter": 9729,
      "minFilter": 9987,
      "wrapS": 10497,
      "wrapT": 10497
    }
  ],
  "scene": 0,
  "scenes": [
    {
      "name": "OSG_Scene",
      "nodes": [
        0
      ]
    }
  ],
  "textures": [
    {
      "sampler": 0,
      "source": 0
    }
  ]
}

